{
  "asset": {
    "generator": "Khronos glTF Blender I/O v3.2.43",
    "version": "2.0"
  },
  "scene": 0,
  "scenes": [
    {
      "name": "Scene",
      "nodes": [
        0,
        1
      ]
    }
  ],
  "nodes": [
    {
      "mesh": 0,
      "name": "Cube",
      "rotation": [
        0.04398570954799652,
        -0.01792638935148716,
        0.001923835021443665,
        0.9988694787025452
      ],
      "scale": [
        1,
        1.3713983297348022,
        3.094717025756836
      ],
      "translation": [
        0.28825312852859497,
        -0.2703661322593689,
        0
      ]
    },
    {
      "mesh": 1,
      "name": "Cylinder",
      "rotation": [
        -0.18923020362854004,
        0.1565268188714981,
        0.6848053932189941,
        0.6860997080802917
      ],
      "translation": [
        0.3961668312549591,
        1.9446310997009277,
        -2.0014936923980713
      ]
    }
  ],
  "animations": [
    {
      "channels": [
        {
          "sampler": 0,
          "target": {
            "node": 1,
            "path": "translation"
          }
        },
        {
          "sampler": 1,
          "target": {
            "node": 1,
            "path": "rotation"
          }
        }
      ],
      "name": "CylinderAction",
      "samplers": [
        {
          "input": 8,
          "interpolation": "LINEAR",
          "output": 9
        },
        {
          "input": 8,
          "interpolation": "LINEAR",
          "output": 10
        }
      ]
    }
  ],
  "materials": [
    {
      "doubleSided": true,
      "name": "Material",
      "pbrMetallicRoughness": {
        "baseColorFactor": [
          0.04644318297505379,
          0.023286249488592148,
          0.8000000715255737,
          1
        ],
        "metallicFactor": 0,
        "roughnessFactor": 0.4000000059604645
      }
    },
    {
      "doubleSided": true,
      "name": "Material.002",
      "pbrMetallicRoughness": {
        "baseColorFactor": [
          0.6905221343040466,
          0.8000000715255737,
          0.0584932379424572,
          1
        ],
        "metallicFactor": 0,
        "roughnessFactor": 0.5
      }
    }
  ],
  "meshes": [
    {
      "name": "Cube",
      "primitives": [
        {
          "attributes": {
            "POSITION": 0,
            "NORMAL": 1,
            "TEXCOORD_0": 2
          },
          "indices": 3,
          "material": 0
        }
      ]
    },
    {
      "name": "Cylinder.002",
      "primitives": [
        {
          "attributes": {
            "POSITION": 4,
            "NORMAL": 5,
            "TEXCOORD_0": 6
          },
          "indices": 7,
          "material": 1
        }
      ]
    }
  ],
  "accessors": [
    {
      "bufferView": 0,
      "componentType": 5126,
      "count": 24,
      "max": [
        1,
        1,
        1
      ],
      "min": [
        -1,
        -1,
        -1
      ],
      "type": "VEC3"
    },
    {
      "bufferView": 1,
      "componentType": 5126,
      "count": 24,
      "type": "VEC3"
    },
    {
      "bufferView": 2,
      "componentType": 5126,
      "count": 24,
      "type": "VEC2"
    },
    {
      "bufferView": 3,
      "componentType": 5123,
      "count": 36,
      "type": "SCALAR"
    },
    {
      "bufferView": 4,
      "componentType": 5126,
      "count": 192,
      "max": [
        0.9905037879943848,
        0.7991472482681274,
        0.9675248861312866
      ],
      "min": [
        -0.9905037879943848,
        -0.7991472482681274,
        -0.9675248861312866
      ],
      "type": "VEC3"
    },
    {
      "bufferView": 5,
      "componentType": 5126,
      "count": 192,
      "type": "VEC3"
    },
    {
      "bufferView": 6,
      "componentType": 5126,
      "count": 192,
      "type": "VEC2"
    },
    {
      "bufferView": 7,
      "componentType": 5123,
      "count": 372,
      "type": "SCALAR"
    },
    {
      "bufferView": 8,
      "componentType": 5126,
      "count": 40,
      "max": [
        1.6666666666666667
      ],
      "min": [
        0.041666666666666664
      ],
      "type": "SCALAR"
    },
    {
      "bufferView": 9,
      "componentType": 5126,
      "count": 40,
      "type": "VEC3"
    },
    {
      "bufferView": 10,
      "componentType": 5126,
      "count": 40,
      "type": "VEC4"
    }
  ],
  "bufferViews": [
    {
      "buffer": 0,
      "byteLength": 288,
      "byteOffset": 0
    },
    {
      "buffer": 0,
      "byteLength": 288,
      "byteOffset": 288
    },
    {
      "buffer": 0,
      "byteLength": 192,
      "byteOffset": 576
    },
    {
      "buffer": 0,
      "byteLength": 72,
      "byteOffset": 768
    },
    {
      "buffer": 0,
      "byteLength": 2304,
      "byteOffset": 840
    },
    {
      "buffer": 0,
      "byteLength": 2304,
      "byteOffset": 3144
    },
    {
      "buffer": 0,
      "byteLength": 1536,
      "byteOffset": 5448
    },
    {
      "buffer": 0,
      "byteLength": 744,
      "byteOffset": 6984
    },
    {
      "buffer": 0,
      "byteLength": 160,
      "byteOffset": 7728
    },
    {
      "buffer": 0,
      "byteLength": 480,
      "byteOffset": 7888
    },
    {
      "buffer": 0,
      "byteLength": 640,
      "byteOffset": 8368
    }
  ],
  "buffers": [
    {
      "uri": "first_data.bin",
      "byteLength": 9008
    }
  ]
}